<?xml version="1.0" standalone="no"?><svg xmlns:xlink="http://www.w3.org/1999/xlink" xmlns="http://www.w3.org/2000/svg" viewBox="0 0 1000 538.4664091686191" preserveAspectRatio="xMaxYMax slice"><g transform="scale(1.2663838409421897)"><rect x="0" y="0" width="789.657142857143" height="425.20000000000005" fill="#1b1618"/><circle cx="30.375" cy="30.375" r="6.075" fill="#06a24f"/><circle cx="91.11500000000001" cy="30.375" r="6.075" fill="#06a24f"/><circle cx="151.855" cy="30.375" r="6.075" fill="#2e2e2e"/><circle cx="212.605" cy="30.375" r="6.075" fill="#06a24f"/><circle cx="273.34499999999997" cy="30.375" r="6.075" fill="#06a24f"/><circle cx="334.085" cy="30.375" r="6.075" fill="#2e2e2e"/><circle cx="394.825" cy="30.375" r="6.075" fill="#2e2e2e"/><circle cx="455.575" cy="30.375" r="6.075" fill="#2e2e2e"/><circle cx="516.315" cy="30.375" r="6.075" fill="#06a24f"/><circle cx="577.0550000000001" cy="30.375" r="6.075" fill="#2e2e2e"/><circle cx="637.8050000000001" cy="30.375" r="6.075" fill="#2e2e2e"/><circle cx="698.5450000000001" cy="30.375" r="6.075" fill="#06a24f"/><circle cx="759.2850000000001" cy="30.375" r="6.075" fill="#06a24f"/><circle cx="30.375" cy="91.11500000000001" r="6.075" fill="#2e2e2e"/><circle cx="91.11" cy="91.11" r="7.61" fill="#06a24f"/><circle cx="151.86" cy="91.11" r="9.15" fill="#2e2e2e"/><circle cx="212.6" cy="91.12" r="10.69" fill="#2e2e2e"/><circle cx="273.345" cy="91.115" r="12.225" fill="#2e2e2e"/><circle cx="334.085" cy="91.115" r="13.765" fill="#06a24f"/><circle cx="394.825" cy="91.115" r="14.405" fill="#06a24f"/><circle cx="455.575" cy="91.115" r="14.405" fill="#2e2e2e"/><circle cx="516.315" cy="91.115" r="13.765" fill="#06a24f"/><circle cx="577.0550000000001" cy="91.115" r="12.225" fill="#2e2e2e"/><circle cx="637.8000000000001" cy="91.12" r="10.69" fill="#06a24f"/><circle cx="698.54" cy="91.11" r="9.15" fill="#2e2e2e"/><circle cx="759.28" cy="91.11" r="7.61" fill="#2e2e2e"/><circle cx="30.375" cy="151.855" r="6.075" fill="#06a24f"/><circle cx="91.11" cy="151.86" r="9.15" fill="#06a24f"/><circle cx="151.855" cy="151.855" r="12.225" fill="#06a24f"/><circle cx="212.60000000000002" cy="151.86" r="15.3" fill="#2e2e2e"/><circle cx="273.35" cy="151.85999999999999" r="18.38" fill="#06a24f"/><circle cx="334.085" cy="151.85500000000002" r="21.455" fill="#06a24f"/><circle cx="394.825" cy="151.85500000000002" r="22.735" fill="#06a24f"/><circle cx="455.575" cy="151.85500000000002" r="22.735" fill="#06a24f"/><circle cx="516.315" cy="151.85500000000002" r="21.455" fill="#06a24f"/><circle cx="577.06" cy="151.85999999999999" r="18.38" fill="#06a24f"/><circle cx="637.8" cy="151.86" r="15.3" fill="#2e2e2e"/><circle cx="698.5450000000001" cy="151.855" r="12.225" fill="#2e2e2e"/><circle cx="759.29" cy="151.86" r="9.15" fill="#06a24f"/><circle cx="30.375" cy="212.605" r="6.075" fill="#06a24f"/><circle cx="91.11" cy="212.6" r="10.56" fill="#2e2e2e"/><circle cx="151.855" cy="212.595" r="15.045" fill="#06a24f"/><circle cx="212.6" cy="212.6" r="19.53" fill="#06a24f"/><circle cx="273.345" cy="212.59500000000003" r="24.015" fill="#06a24f"/><circle cx="334.08" cy="212.6" r="28.5" fill="#2e2e2e"/><circle cx="394.83" cy="212.6" r="30.37" fill="#2e2e2e"/><circle cx="455.57" cy="212.6" r="30.37" fill="#06a24f"/><circle cx="516.31" cy="212.6" r="28.5" fill="#2e2e2e"/><circle cx="577.055" cy="212.59500000000003" r="24.015" fill="#06a24f"/><circle cx="637.8" cy="212.6" r="19.53" fill="#06a24f"/><circle cx="698.545" cy="212.595" r="15.045" fill="#06a24f"/><circle cx="759.29" cy="212.6" r="10.56" fill="#06a24f"/><circle cx="30.375" cy="273.34499999999997" r="6.075" fill="#06a24f"/><circle cx="91.11" cy="273.34" r="10.56" fill="#06a24f"/><circle cx="151.855" cy="273.345" r="15.045" fill="#2e2e2e"/><circle cx="212.6" cy="273.34000000000003" r="19.53" fill="#2e2e2e"/><circle cx="273.345" cy="273.345" r="24.015" fill="#2e2e2e"/><circle cx="334.08" cy="273.34000000000003" r="28.5" fill="#2e2e2e"/><circle cx="394.83" cy="273.34" r="30.37" fill="#06a24f"/><circle cx="455.57" cy="273.34" r="30.37" fill="#2e2e2e"/><circle cx="516.31" cy="273.34000000000003" r="28.5" fill="#06a24f"/><circle cx="577.055" cy="273.345" r="24.015" fill="#2e2e2e"/><circle cx="637.8" cy="273.34000000000003" r="19.53" fill="#2e2e2e"/><circle cx="698.545" cy="273.345" r="15.045" fill="#2e2e2e"/><circle cx="759.29" cy="273.34" r="10.56" fill="#2e2e2e"/><circle cx="30.375" cy="334.085" r="6.075" fill="#2e2e2e"/><circle cx="91.11" cy="334.09" r="9.15" fill="#2e2e2e"/><circle cx="151.855" cy="334.08500000000004" r="12.225" fill="#06a24f"/><circle cx="212.60000000000002" cy="334.08" r="15.3" fill="#06a24f"/><circle cx="273.35" cy="334.09" r="18.38" fill="#2e2e2e"/><circle cx="334.085" cy="334.085" r="21.455" fill="#06a24f"/><circle cx="394.825" cy="334.08500000000004" r="22.735" fill="#2e2e2e"/><circle cx="455.575" cy="334.08500000000004" r="22.735" fill="#06a24f"/><circle cx="516.315" cy="334.085" r="21.455" fill="#2e2e2e"/><circle cx="577.06" cy="334.09" r="18.38" fill="#2e2e2e"/><circle cx="637.8" cy="334.08" r="15.3" fill="#2e2e2e"/><circle cx="698.5450000000001" cy="334.08500000000004" r="12.225" fill="#06a24f"/><circle cx="759.29" cy="334.09" r="9.15" fill="#2e2e2e"/><circle cx="30.375" cy="394.825" r="6.075" fill="#06a24f"/><circle cx="91.11" cy="394.83000000000004" r="7.61" fill="#2e2e2e"/><circle cx="151.86" cy="394.83" r="9.15" fill="#06a24f"/><circle cx="212.6" cy="394.83" r="10.69" fill="#2e2e2e"/><circle cx="273.345" cy="394.82500000000005" r="12.225" fill="#06a24f"/><circle cx="334.085" cy="394.825" r="13.765" fill="#2e2e2e"/><circle cx="394.825" cy="394.825" r="14.405" fill="#06a24f"/><circle cx="455.575" cy="394.825" r="14.405" fill="#06a24f"/><circle cx="516.315" cy="394.825" r="13.765" fill="#06a24f"/><circle cx="577.0550000000001" cy="394.82500000000005" r="12.225" fill="#06a24f"/><circle cx="637.8000000000001" cy="394.83" r="10.69" fill="#06a24f"/><circle cx="698.54" cy="394.83" r="9.15" fill="#2e2e2e"/><circle cx="759.28" cy="394.83000000000004" r="7.61" fill="#06a24f"/></g></svg>